# xmcd CD database file
#
# Track frame offsets:
#	150
#	18068
#	40661
#	58579
#
# Disc length: 1078 seconds
#
# Revision: 0
# Processed by: cddbd v1.5.1PL0 Copyright (c) Steve Scherf et al.
# Submitted via: CDex 1.51
#
DISCID=23043404
DTITLE=美郷あき - UNLIMITED FIRE
DYEAR=2005
DGENRE=Pop
TTITLE0=UNLIMITED FIRE
TTITLE1=FAITH...
TTITLE2=UNLINUTED FIRE (off vocal)
TTITLE3=FAITH... (off vocal)
EXTD=YEAR: 2005
EXTT0=
EXTT1=
EXTT2=
EXTT3=
PLAYORDER=
